<svg xmlns="http://www.w3.org/2000/svg" width="60" height="60" viewBox="0 0 24 24" fill="none" stroke="#0077cc" stroke-width="2" stroke-linecap="round" stroke-linejoin="round">
  <circle cx="12" cy="12" r="10"></circle>
  <line x1="12" y1="8" x2="12" y2="16"></line>
  <line x1="8" y1="12" x2="16" y2="12"></line>
  <path d="M17 17l.5.5m0 0l.5.5m-.5-.5l.5-.5m-.5.5l-.5.5"></path>
  <path d="M17 7l.5.5m0 0l.5.5m-.5-.5l.5-.5m-.5.5l-.5.5"></path>
  <path d="M7 17l.5.5m0 0l.5.5m-.5-.5l.5-.5m-.5.5l-.5.5"></path>
  <path d="M7 7l.5.5m0 0l.5.5m-.5-.5l.5-.5m-.5.5l-.5.5"></path>
</svg> 