<svg xmlns="http://www.w3.org/2000/svg" width="60" height="60" viewBox="0 0 24 24" fill="none" stroke="#0077cc" stroke-width="2" stroke-linecap="round" stroke-linejoin="round">
  <circle cx="12" cy="12" r="10"></circle>
  <circle cx="12" cy="12" r="2"></circle>
  <path d="M12 2C6.48 2 2 6.48 2 12c0 3.14 1.46 5.93 3.74 7.74c1.23-2.12 3.42-3.63 6.01-3.73C15.24 16 18 13.24 18 9.75c0-4.14-3.36-7.5-7.5-7.5C7.37 2.25 4.55 4.76 4.08 8h2.08c0.56-2.4 2.7-4.25 5.34-4.25c3.03 0 5.5 2.47 5.5 5.5c0 2.43-1.61 4.47-3.81 5.16c1.38 0.56 2.55 1.55 3.32 2.82c2.42-1.76 4-4.61 4-7.82c0-5.39-4.39-9.75-9.75-9.75z"></path>
</svg> 